<?xml version="1.0" encoding="UTF-8" standalone="no"?>
<svg width="36" height="36" viewBox="0 0 400 450" fill="#ffffff" version="1.1" id="svg2" xmlns="http://www.w3.org/2000/svg" xmlns:svg="http://www.w3.org/2000/svg">
  <defs>
    <linearGradient id="MyGradient" gradientTransform="rotate(45)">
      <stop offset="5%" stop-color="#07F"/>
      <stop offset="95%" stop-color="#328"/>
    </linearGradient>
  </defs>
  <style type="text/css">
	.bupterfly{fill: url(#MyGradient);}
</style>
  <path
     class="bupterfly"
     d="m 425,450 -450,0.19531 V 0 H 425 Z M 200.00001,221.60416 C 187.06311,202.19417 161.28033,154.2567 129.60779,138.81684 99.267196,124.0263 91.918616,122.85899 85.07391,125.97068 c -7.92255,3.60171 -9.337736,15.70043 -9.337736,22.83726 0,7.13674 3.830438,58.63219 6.464591,67.08699 8.703681,27.93584 34.636145,43.5182 66.094445,34.83668 1.60958,-0.49874 2.63862,-0.0977 4.29745,-0.58266 -1.62876,0.52965 -2.65869,0.13031 -4.29745,0.58266 -46.1433,14.28047 -77.32302,21.9867 -29.30266,73.29771 52.92061,52.25443 67.10866,-5.59736 81.00746,-44.61623 8.70888,34.79763 10.0638,112.43559 80.07768,44.61623 53.5111,-58.32942 16.55403,-73.78716 -28.37289,-73.29632 -1.6003,0.0754 -2.71121,-0.59347 -4.29745,-0.58197 1.62023,-0.0699 2.73032,0.59923 4.29745,0.58197 30.72024,-1.44959 57.66187,-6.50176 66.09455,-34.836 2.55224,-8.57557 7.34547,-61.24611 6.46448,-67.08727 -0.881,-5.84122 -0.86393,-20.10922 -9.33773,-22.83726 -7.32101,-2.35689 -17.55664,-5.95591 -44.53409,12.84618 -28.16122,19.62742 -57.10487,57.90922 -70.392,82.78551 z"
     id="path2"/>
</svg>
