<?xml version="1.0" encoding="UTF-8" standalone="no"?>
<svg id="Layer_1" viewBox="0 0 1000 1000" version="1.1" xmlns="http://www.w3.org/2000/svg" xmlns:svg="http://www.w3.org/2000/svg">
  <defs>
    <linearGradient id="MyGradient" gradientTransform="rotate(45)">
      <stop offset="5%" stop-color="#FC5"/>
      <stop offset="95%" stop-color="#725"/>
    </linearGradient>
  </defs>
  <style
     type="text/css">
	.koffee{fill: url(#MyGradient);}
	</style>
  <path
     id="path6"
     class="koffee"
     d="M 0 0 L 0 1000 L 1000 1000 L 1000 0 L 0 0 z M 208.68555 281.82031 L 664.48438 281.83984 C 700.3343 281.83984 735.65343 292.75082 763.94336 312.55078 C 788.09333 328.33076 819.23471 359.0609 830.55469 415.80078 L 830.57422 415.91992 L 830.59375 416.01953 L 830.59375 416.03906 L 830.60547 416.03906 C 841.08545 469.40896 828.84643 519.72078 796.14648 557.7207 C 779.49653 577.07066 758.43635 592.24963 733.56641 602.84961 C 709.95646 612.90959 684.04605 618.35078 656.49609 619.05078 C 655.13612 635.77074 651.65623 650.14066 645.90625 662.89062 C 633.73626 689.87058 612.33657 707.43916 582.30664 715.11914 L 582.05664 715.17969 C 574.83666 716.91969 569.41554 716.91992 563.68555 716.91992 C 464.97575 718.16969 263.5864 718.17969 255.06641 718.17969 L 254.98633 718.17969 C 254.17633 718.16969 234.97716 718.04904 215.36719 708.53906 C 196.37723 699.32908 173.22531 679.76023 170.69531 638.82031 C 170.67501 638.61031 170.66602 638.38969 170.66602 638.17969 C 168.13602 530.45991 169.38648 329.70945 169.39648 327.68945 L 169.39648 322.49023 C 169.39648 305.44027 183.05558 281.82031 208.68555 281.82031 z M 658.625 392.17969 L 658.625 508.58984 C 666.705 508.48984 674.57641 508.04953 682.06641 507.26953 C 710.81636 497.62955 723.09375 479.18916 723.09375 445.69922 C 723.09375 431.00924 719.23492 419.44053 711.29492 410.31055 L 711.03711 410 C 701.52713 398.51002 687.78396 392.17969 672.33398 392.17969 L 658.625 392.17969 z M 478.26172 393.72461 C 441.08597 393.81868 413.95508 424.44922 413.95508 424.44922 C 378.16519 384.72934 323.89454 387.38014 298.72461 413.83008 C 273.55469 440.27999 282.79505 485.3997 301.375 511.84961 C 317.59495 534.36955 398.90347 607.52019 409.02344 616.66016 C 410.00343 617.54016 411.18486 618.22969 412.46484 618.42969 L 412.47656 618.42969 C 415.42655 619.01969 417.98633 616.46094 417.98633 616.46094 C 417.98633 616.46094 490.84472 550.19926 523.97461 511.85938 C 553.07452 477.44947 554.45636 420.429 505.39648 399.28906 C 495.95775 395.30659 486.84074 393.70291 478.26172 393.72461 z " />
</svg>
