<?xml version="1.0" encoding="UTF-8" standalone="no"?>
<!-- Generator: Adobe Illustrator 20.0.0, SVG Export Plug-In . SVG Version: 6.00 Build 0)  -->

<svg
   version="1.1"
   id="White"
   x="0px"
   y="0px"
   viewBox="0 0 400 400"
   style="enable-background:new 0 0 400 400;"
   xml:space="preserve"
   sodipodi:docname="BackIcon.svg"
   inkscape:version="1.3.2 (091e20e, 2023-11-25, custom)"
   xmlns:inkscape="http://www.inkscape.org/namespaces/inkscape"
   xmlns:sodipodi="http://sodipodi.sourceforge.net/DTD/sodipodi-0.dtd"
   xmlns="http://www.w3.org/2000/svg"
   xmlns:svg="http://www.w3.org/2000/svg"><sodipodi:namedview
   id="namedview2"
   pagecolor="#505050"
   bordercolor="#ffffff"
   borderopacity="1"
   inkscape:showpageshadow="0"
   inkscape:pageopacity="0"
   inkscape:pagecheckerboard="1"
   inkscape:deskcolor="#505050"
   inkscape:zoom="0.508125"
   inkscape:cx="138.74539"
   inkscape:cy="296.18696"
   inkscape:window-width="1920"
   inkscape:window-height="1009"
   inkscape:window-x="-8"
   inkscape:window-y="-8"
   inkscape:window-maximized="1"
   inkscape:current-layer="White" />
<defs
   id="defs2">
	<linearGradient
   id="MyGradient"
   gradientTransform="rotate(45)">
	  <stop
   offset="5%"
   stop-color="#0FF"
   id="stop1"
   style="stop-color:#ffffff;stop-opacity:1" />
	  <stop
   offset="95%"
   stop-color="#56A"
   id="stop2"
   style="stop-color:#c8beb7;stop-opacity:1" />
	</linearGradient>
</defs>
<style
   type="text/css"
   id="style2">
	.st0{fill: url(#MyGradient);}
</style>
<path
   id="path2"
   class="st0"
   d="M 0 0 L 0 400 L 400 400 L 400 0 L 0 0 z M 208.64453 50.09375 C 212.99892 49.910175 216.36164 52.660998 215.32227 61.474609 L 215.32227 146.33008 L 326.64648 146.33008 C 344.3782 146.33008 342.65234 154.64784 342.65234 164.97852 L 342.65234 244.43359 C 342.65234 254.76429 344.3782 263.08008 326.64648 263.08008 L 215.32227 263.08008 L 215.32227 349.32812 C 217.67595 371.32419 202.35576 362.04674 196.01562 354.47852 L 57.269531 215.73438 C 54.40755 212.8724 52.976562 209.13738 52.976562 205.40234 C 52.976563 201.6673 54.40755 197.93228 57.269531 195.07031 L 196.01562 56.324219 C 198.94407 53.395772 204.29014 50.277325 208.64453 50.09375 z " />
</svg>
